<?xml version="1.0" encoding="UTF-8"?>
<svg width="1200pt" height="1200pt" version="1.1" viewBox="0 0 1200 1200" xmlns="http://www.w3.org/2000/svg">
 <g>
  <path d="m910.16 442.15c-2.0156-2.125-0.30078-3.4922-1.4766-5.4492-7.7266-5.4492-3.7578-19.621-0.94922-27.227 0.37109-6.3711 1.9062-12.492 0.023438-19.309-2.6406-3.9609-5.2695-7.9336-7.9062-11.891-1.4141 1.0078 0.058593 2.5938 0.49219 3.9609-4.6328-7.7266-11.508-5.0391-14.844-9.4336-2.1016-2.375-4.8125-1.6914-7.9219 0.98437-3.3477-6.3008-6.2656-18.926-8.375-28.727-4.3438-9.9258-9.2891-22.285-12.336-28.246-10.117-17.617-16.609-26.762-24.203-39.648-5.1602 4.8242-3-6.1562-8.3984-9.4219-4.5234-1.2852-13.883-11.723-13.848-14.375-11.914-11.629-23.363-15.539-29.172-27.77-9.0859-1.9453-10.105-8.1484-18.301-17.855-7.7656-4.332-22.609-18.898-31.633-41.148-6.6133-16.297-4.2969-36.07-11.809-50.027-5.0508-9.3711-13.824-14.617-16.812-18.84-9.4688-1.8828-12.254-8.6875-19.297-12.898-3.3008 0.70703-5.6992 1.4141-5.9531 3.9492-4.8594-4.3789-8.4961-13.668-16.309-21.312-0.32422-0.49219-0.66016-0.99609-0.98438-1.4883-5.3047 0.78125-9.3477-4.7656-14.855-2.9883-4.0312 5.4961-5.5195 3.5156-9.4219 8.3984-2.375-4.3438 8.0273-6.1094 3.4805-10.883-0.49219 0.32422-0.99609 0.66016-1.4883 0.98438-0.25391 1.8242-6.2891 9.7578-8.4258 3.457 0.96094-0.51562 1.9062-0.94922 2.4727 0.50391 1.5781-1.4102 0.066407-3.4258-1.457-5.4531-0.49219 0.32422-0.99609 0.66016-1.4883 0.98438 0.32422 0.49219 0.66016 0.99609 0.98438 1.4883-8.8203 2.0391-16.801 3.8867-27.73 3.4219-7.9219 6.4336-9.5625 0.5625-18.828 3.9375-7.2227 6.0586-12.996 4.8594-20.316 11.363-0.99609 0.66016-1.9805 1.3203-2.9766 1.9805-4.3789 9.7695-15.574 9.6836-13.883 17.809-1.4766 0.92578-2.3633-1.0547-3.4688-1.9805-8.3633 4.9062-8.5195 8.6172-16.355 10.871-6.3945 8.5781-18.133 16.094-24.301 24.719-10.488 12.047-16.176 25.066-24.312 37.598-0.66016 8.0156-2.5547 15.793-8.4492 22.766-1.5352 4.4023-5.7734 8.2812-11.398 11.867-2.8906 7.9688-26.762 21.793-35.195 27.684-10.598 10.117-14.426 14.594-26.27 21.742-29.773 37.789-61.309 75.215-82.355 114.76 2.6992 2.6875 1.5977 4.6211 2.4727 6.9375-2.3633 1.0938-3.4688-4.0938-5.9414-2.4844-9.8984 2.543-16.414 6.7305-23.281 6.8984-3.4805 4.8828-2.8555 10.586-4.4766 15.84 1.5469 12.695 4.8242 22.055 3.9102 31.691 2.6641-1.4414 6.0586 14.785 1.4648 11.879-5.2305 13.715-2.3398 43.402 20.746 31.223 7.7031-2.0273 14.387 1.0312 22.789-4.4297 28.754-0.71875 50.375-2.9023 77.746-2.3633 0.49219-0.32422 0.99609-0.66016 1.4883-0.98438 5.0391-1.5703 10.176-3.625 13.859 1.5 0.49219-0.33594 0.99609-0.66016 1.4883-0.98438 10.883-2.8672 20.484 0.57422 31.199-1.4414 0.49219-0.32422 0.98438-0.66016 1.4883-0.98437 3.9961-0.55078 7.2734-4.0195 12.875 0.011718 0.99609-0.66016 1.9805-1.3203 2.9766-1.9805 6.0586 4.0078 15.012-6.3477 20.305 1.5117 2.5938-2.207 4.3906-0.50391 6.9375-2.4727 5.7109-0.625 11.867-3.4922 17.34-2.9414 0.49219-0.32422 0.99609-0.66016 1.4883-0.98438 25.824-4.5859 49.703 0.42188 74.27 2.0898 0.49219-0.32422 0.99609-0.66016 1.4883-0.98437 14.531 2.4375 29.809 1.1641 44.555 2.5312 9.0977-2.5312 16.766 2.0273 26.242-2.4375 6.6836 0.89844 13.922-0.89844 20.305 1.5117 0.49219-0.32422 0.98438-0.66016 1.4883-0.98438 9.2891 2.9023 19.922-0.86328 29.207 2.0156 5.4258 7.1875 13.477 1.3086 20.305 1.5117 29.062-1.5469 56.34 5.8555 85.152 5.5664 17.027-1.4414 34.703-6.0586 51.504-6.3594 9.0352-0.13281 17.711 1.5469 25.738 6.4688 4.0664-2.1836-0.34766 3.9102 3.9492 5.9531 1.3789-0.43359 2.9648-1.9062 3.9609-0.49219 10.18 1.9883 10.719-17.367 1.0117-30.688z"/>
  <path d="m546.24 950.77c19.668 1.2109-10.523-9.7812 0 0z"/>
  <path d="m905.07 633.25c-1.6328-10.262-2.5938-18.973-3.7578-29.316-0.58984-5.2812-1.6211-11.426-4.8828-15.805-2.9531-3.9727-1.2344-8.1719-1.9922-13.211-1.4297-9.4922-8.5078-13.332-17.664-12.289-0.058594 7.0781 3.5039 12.602 5.6172 19.094 2.8086 8.6055 0.070313 18.121-0.60156 26.891-0.42188 5.5195 0.58984 9.1328-3.5391 12.793-2.4727 2.207-4.2461 5.0391-5.3867 8.1367-3.168 8.5938-2.2188 18.445-1.1875 27.336 1.0312 8.9297 2.6055 17.773 3.4336 26.723 0.43359 4.7266 2.2422 7.3789-2.2695 8.6289-2.375 0.66016-3.4062 2.8203-3.7422 5.0742-0.9375 6.2539 1.1523 12.66 1.2617 18.898 0.17969 10.273-4.043 21.973-7.1758 31.633-6.1211 18.875-15.266 36.527-25.668 53.375-5.0039 8.1133-10.262 16.055-15.516 24-6.3594 9.625-7.5469 10.98-19.859 10.922-24.574-0.12109-35.711-17.688-46.477-36.984-12.301-22.055-25.523-30.684-50.953-30.684-5.9141 0-5.3398-3.6484-10.297-6.6836-5.4727-3.3477-12.047-4.9453-18.348-5.7344-13.836-1.7383-22.609 4.7031-34.523 6.5391-8.0508 2.6289-62.508-0.70703-67.598-0.13281-6.0586 0.69531-11.543 0.13281-17.484 0.13281-5.6055 0-7.6562-3.8164-13.078-5.4492-12.121-3.6484-30.238-1.9805-40.402 6.1328-2.0508 1.6445-2.9141 5.1953-5.3281 5.1953-3.7695 0-7.5234-0.32422-11.293-0.26562-7.3906 0.12109-14.785 1.7031-21.191 5.4961-11.27 6.6719-17.531 18.672-23.664 29.746-6.1562 11.125-12.973 22.777-24.84 28.57-7.0195 3.4336-14.93 4.4023-22.668 4.0312-2.5312-0.12109-11.832 0.26562-11.207-2.9023-4.3438-6.625-8.7461-13.211-13.066-19.859-14.363-22.094-27.422-45.07-34.895-70.488-3.1445-10.691-6.4453-21.84-5.0742-33.035 0.67188-5.4609 3.6133-18.492-5.7617-17.762 0.21484-19.906 11.531-46.812 1.3438-65.508-3.1914-5.8555-6.625-5.293-7.1523-12.527-0.52734-7.0664-1.4023-14.039-2.1367-21.059-1.1641-11.102 6.8398-19.477 6.7422-30.301-21.551-2.4492-12.238 15.527-19.656 25.5-5.1484 6.9258-5.5547 17.832-5.2812 26.051 0.27734 8.0156-3.0234 15.156-3.9258 23.27-0.86328 7.7891-1.1523 16.391 1.4297 23.914 2.7734 8.0742-2.125 21.215-1.9453 30.359 0.45703 22.859 4.332 47.629 9.5898 69.84 9.4062 39.742-9.8516 85.441 10.668 123.05 10.234 18.781 7.7031 41.16 19.199 59.113 5.9648 9.3242 12.059 18.562 18.637 27.469 6.7812 9.1797 18.504 18.371 22.656 28.754 5.4609 13.668 17.172 25.691 27 36.602 11.832 13.152 23.785 26.23 36.613 38.426 25.727 24.434 55.309 44.387 89.484 54.816 41.102 12.539 89.676 13.309 131.45 3.6484 35.461-8.1953 66.973-26.219 94.105-50.184 12.238-10.812 23.617-22.57 34.668-34.598 5.5312-6.0117 10.98-12.109 16.453-18.18 5.207-5.7969 8.3984-12.973 13.848-18.18 6.168-5.9023 7.2227-13.969 12.973-20.074 7.4883-7.9688 14.258-16.586 20.605-25.477 13.031-18.277 22.801-34.164 25.691-56.746 2.4961-19.488 15.492-34.754 17.484-54.828 2.0508-20.688 0.26563-41.617-0.38281-62.328-1.3203-42.312 20.762-86.219 8.8789-128.55 4.7422-8.9453 3.5664-21.402 2.0391-31.012zm-163.55 270.48c-4.5977-0.98438-5.5312 2.2188-5.8789 5.8789-3.7695 1.957-7.1406 4.5352-10.344 7.2969-6.4062 5.5312-12.434 11.652-20.473 14.809-5.5547 2.1836-9.5156 6.3711-15.457 8.2695-7.5703 2.4102-15.59 2.9414-23.281 4.8242-9.3477 2.293-14.23 6.2266-24.336 6.457-10.691 0.22656-21.406-0.13281-32.051-1.1641-20.93-2.0156-42.238 1.9805-63.469 0.67188-10.246-9.5391-27.254-6.7188-39.469-12.059-13.285-5.8086-24.238-15.492-35.734-24.457-5.4375-4.2461-13.188-9.9258-13.523-15.742-0.45703-8.0508 0.88672-16.152 5.125-23.102 3.5039-5.7461 8.5781-10.262 13.727-14.496 5.2305-4.2969 8.9648-3.8398 14.93-6.3594 6.1094-2.5781 10.645 0.058594 16.586 1.043 6.3359 1.043 9.1328-6.1562 14.438-8.3516 14.148-5.8438 33.359-2.3281 48.312-2.3281 5.6523 0 9.5742 0.27734 14.867 1.6094 5.3516 1.3438 7.7383-5.2188 13.391-4.9062 3.3945 0.17969 6.6953 5.1602 10.094 5.1602 3.2148-0.17969 7.1172-1.8594 9.9102-1.8594 12.793 0 25.559-0.22656 38.34-0.30078 7.5234-0.046875 16.391-0.058594 22.969 4.1641 5.2812 3.3828 6.5508 8.375 13.715 6.2656 28.113-8.2969 51.238 22.375 47.613 48.676z"/>
  <path d="m902.98 664.27c4.2227 15.082 5.6641-10.562 0 0z"/>
 </g>
</svg>
