<?xml version="1.0" encoding="UTF-8"?>
<svg width="1200pt" height="1200pt" version="1.1" viewBox="0 0 1200 1200" xmlns="http://www.w3.org/2000/svg">
 <g>
  <path d="m555.6 646.8c-3.6016-7.1992-7.1992-15.602-12-21.602-1.1992-2.3984-2.3984-3.6016-3.6016-6 6-33.602 10.801-68.398 16.801-102 2.3984-13.199-18-19.199-20.398-6-3.6016 20.398-7.1992 42-10.801 62.398-2.3984 14.398-7.1992 28.801-7.1992 43.199 0 10.801 6 19.199 12 28.801 6 9.6016 12 20.398 18 31.199-33.602-9.6016-68.398-15.602-103.2-18 3.6016-66 36-127.2 55.199-189.6 3.6016-13.199-15.602-18-20.398-6-20.398 67.199-56.398 132-56.398 204 0 6 4.8008 9.6016 10.801 10.801 43.199 2.3984 88.801 10.801 130.8 24 7.1992 2.3984 15.602-4.8008 13.199-13.199-6.0078-14.398-15.605-28.797-22.805-41.996zm-16.801-26.402v0c1.1992 1.2031 0 4.8008 0 0z"/>
  <path d="m667.2 528c-1.1992-9.6016-16.801-12-20.398-1.1992-4.8008 16.801-4.8008 33.602-2.3984 50.398 1.1992 7.1992 12 9.6016 16.801 4.8008 12-13.199 15.602-30 13.199-46.801-0.003906-4.8008-3.6016-6-7.2031-7.1992z"/>
  <path d="m915.6 592.8c-9.6016-4.8008-19.199-6-30-3.6016 4.8008-19.199 9.6016-37.199 14.398-56.398 1.1992 2.3984 3.6016 2.3984 6 3.6016 4.8008 2.3984 12 0 13.199-6 22.801-120 12-247.2-73.199-340.8-73.199-84-198-118.8-297.6-63.602-30 16.801-54 39.602-74.398 67.199-61.199-40.801-121.2-81.602-182.4-122.4-20.398-14.398-56.398-49.199-81.602-25.199-20.398 19.199-8.3984 48 6 67.199 42 54 92.398 102 146.4 144-4.8008 2.3984-9.6016 6-13.199 8.3984-30 20.398-66 45.602-66 85.199 0 4.8008 3.6016 8.3984 7.1992 9.6016 25.199 6 50.398 0 74.398-7.1992-2.3984 4.8008-3.6016 9.6016-6 13.199-21.602 51.602-38.398 104.4-48 159.6-4.8008 27.602-7.1992 55.199-7.1992 84-28.801 102-44.398 128.4-36 235.2 2.3984 40.801 6 93.602 37.199 123.6 12 10.801 30 21.602 45.602 13.199 1.1992-1.1992 2.3984-1.1992 3.6016-2.3984 1.1992 12 3.6016 22.801 6 34.801 6 27.602 14.398 60 31.199 82.801 12 15.602 27.602 21.602 45.602 13.199 9.6016-4.8008 16.801-12 22.801-20.398 6 22.801 14.398 31.199 27.602 51.602 13.199 20.398 37.199 34.801 64.801 31.199 40.801-6 80.398-60 88.801-80.398 9.6016 18 22.801 32.398 45.602 27.602 25.199-4.8008 39.602-28.801 48-54 7.1992 19.199 36 20.398 51.602 12 13.199-7.1992 22.801-26.398 26.398-48 15.602-86.398 0-84 20.398-170.4 9.6016-33.602 20.398-66 30-99.602v-4.8008c12 1.1992 24 0 33.602-3.6016 30-9.6016 46.801-46.801 51.602-76.801 2.3906-31.207-2.4062-68.406-32.406-81.605zm-342-457.2c63.602-27.602 140.4-19.199 199.2 15.602 55.199 33.602 96 87.602 118.8 147.6 24 64.801 24 134.4 13.199 202.8-43.199-52.801-102-87.602-157.2-126-76.801-51.602-152.4-103.2-229.2-154.8-8.3984-6-18-12-26.398-18 20.395-27.605 46.797-51.605 81.598-67.203zm-306 3.5977c-10.801-10.801-20.398-22.801-30-34.801-6-7.1992-14.398-15.602-16.801-25.199-1.1992-4.8008-1.1992-8.3984 0-12 3.6016-9.6016 18-6 26.398-2.3984 15.602 7.1992 30 20.398 44.398 30 15.602 10.801 32.398 21.602 48 32.398 39.602 27.602 80.398 54 120 81.602-26.398 9.6016-52.801 21.602-78 34.801-40.797-32.402-79.199-67.203-114-104.4zm290.4 750c-38.398-31.199-66-70.801-82.801-116.4-22.801 31.199-80.398 96-102 61.199-13.199 20.398-31.199 38.398-52.801 51.602-8.3984 4.8008-16.801-8.3984-8.3984-13.199 24-15.602 42-34.801 55.199-60 3.6016-6 13.199-4.8008 14.398 2.3984 6 30 42-6 51.602-15.602 13.199-13.199 25.199-27.602 34.801-44.398 0-1.1992 1.1992-1.1992 1.1992-2.3984 2.3984-6 13.199-8.3984 15.602 0 14.398 49.199 43.199 92.398 84 124.8 8.3984 7.1953-3.6016 17.996-10.801 11.996zm363.6-200.4c-7.1992 21.602-22.801 42-46.801 43.199-16.801 1.1992-33.602-2.3984-49.199-9.6016 8.3984-14.398 16.801-28.801 24-43.199 6-12-10.801-21.602-18-10.801-24 43.199-48 86.398-73.199 129.6-18-7.1992-33.602-2.3984-48 7.1992 1.1992-4.8008 1.1992-9.6016 1.1992-15.602s-4.8008-10.801-10.801-10.801c-28.801 1.1992-50.398 14.398-70.801 31.199-9.6016-37.199-33.602-68.398-70.801-86.398-38.398-18-75.602-19.199-117.6-15.602-37.199 2.3984-69.602 22.801-87.602 54-33.602-72-38.398-153.6-24-231.6 8.3984-45.602 21.602-90 38.398-134.4 6-16.801 13.199-33.602 20.398-50.398 18-4.8008 37.199-8.3984 55.199-13.199-7.1992 12-10.801 24-8.3984 38.398 4.8008 21.602 24 32.398 44.398 32.398 28.801 0 58.801-12 85.199-22.801 28.801-12 56.398-26.398 81.602-44.398 24 16.801 48 32.398 73.199 49.199 56.398 37.199 118.8 73.199 162 126-7.1992 30-15.602 58.801-22.801 87.602-7.1992 4.8008-12 12-15.602 20.398-4.8008 12 13.199 22.801 18 10.801 9.6016-22.801 39.602-30 55.199-8.3984 15.609 19.203 12.012 46.801 4.8125 67.203z"/>
  <path d="m710.4 465.6c-4.8008-2.3984-9.6016-4.8008-14.398-7.1992 0-2.3984-1.1992-4.8008-4.8008-7.1992-15.602-10.801-82.801-34.801-79.199 4.8008 3.6016 38.398 70.801 34.801 96 27.602 8.3984-1.207 10.801-14.406 2.3984-18.004z"/>
  <path d="m441.6 524.4c3.6016-14.398 4.8008-27.602 2.3984-42-1.1992-6-8.3984-8.3984-13.199-7.1992-2.3984 1.1992-4.8008 2.3984-6 4.8008-1.1992 1.1992-3.6016 2.3984-3.6016 3.6016-3.6016 7.1992-6 14.398-4.8008 21.602 1.1992 4.8008 4.8008 10.801 4.8008 15.602 1.1992 11.996 16.801 15.594 20.402 3.5938z"/>
  <path d="m456 450c6-9.6016 1.1992-16.801-6-22.801 8.3984-3.6016 7.1992-19.199-4.8008-20.398-15.602-1.1992-30-2.3984-45.602-1.1992-9.6016 0-20.398 1.1992-28.801 8.3984-6 6-8.3984 15.602-6 22.801 3.6016 9.6016 12 12 21.602 13.199 14.398 2.3984 28.801 3.6016 42 6 10.801 1.1992 22.801 3.6016 27.602-6z"/>
 </g>
</svg>
